<?xml version="1.0" encoding="UTF-8" standalone="no"?>
<!-- Created with Inkscape (http://www.inkscape.org/) -->

<svg
   xmlns:dc="http://purl.org/dc/elements/1.1/"
   xmlns:cc="http://creativecommons.org/ns#"
   xmlns:rdf="http://www.w3.org/1999/02/22-rdf-syntax-ns#"
   xmlns:svg="http://www.w3.org/2000/svg"
   xmlns="http://www.w3.org/2000/svg"
   xmlns:sodipodi="http://sodipodi.sourceforge.net/DTD/sodipodi-0.dtd"
   xmlns:inkscape="http://www.inkscape.org/namespaces/inkscape"
   width="128.56874mm"
   height="43.538067mm"
   viewBox="0 0 128.56874 43.538067"
   version="1.1"
   id="svg8"
   inkscape:version="0.92.4 (5da689c313, 2019-01-14)"
   sodipodi:docname="WE-znak-czarny.svg">
  <defs
     id="defs2">
    <clipPath
       id="clipPath885"
       clipPathUnits="userSpaceOnUse">
      <path
         inkscape:connector-curvature="0"
         id="path883"
         d="M 0,0 H 841.89 V 595.281 H 0 Z" />
    </clipPath>
  </defs>
  <sodipodi:namedview
     id="base"
     pagecolor="#ffffff"
     bordercolor="#666666"
     borderopacity="1.0"
     inkscape:pageopacity="0.0"
     inkscape:pageshadow="2"
     inkscape:zoom="2.1328292"
     inkscape:cx="214.10218"
     inkscape:cy="84.19087"
     inkscape:document-units="mm"
     inkscape:current-layer="g881"
     showgrid="false"
     fit-margin-top="0"
     fit-margin-left="0"
     fit-margin-right="0"
     fit-margin-bottom="0"
     inkscape:window-width="1920"
     inkscape:window-height="1017"
     inkscape:window-x="-8"
     inkscape:window-y="-8"
     inkscape:window-maximized="1" />
  <metadata
     id="metadata5">
    <rdf:RDF>
      <cc:Work
         rdf:about="">
        <dc:format>image/svg+xml</dc:format>
        <dc:type
           rdf:resource="http://purl.org/dc/dcmitype/StillImage" />
        <dc:title></dc:title>
      </cc:Work>
    </rdf:RDF>
  </metadata>
  <g
     inkscape:label="Layer 1"
     inkscape:groupmode="layer"
     id="layer1"
     transform="translate(-13.200745,-127.0643)">
    <g
       transform="matrix(0.35277777,0,0,-0.35277777,-73.629329,254.69397)"
       inkscape:label="WE-znak"
       id="g877">
      <g
         id="g879">
        <g
           clip-path="url(#clipPath885)"
           id="g881">
          <g
             transform="translate(364.7002,328.7871)"
             id="g887">
            <path
               inkscape:connector-curvature="0"
               id="path889"
               style="fill:#000000;fill-opacity:1;fill-rule:nonzero;stroke:none;stroke-opacity:1"
               d="M 0,0 H 6.815 L -5.687,31.906 h -7.032 z M 14.976,-0.478 H 15.15 L 28.477,31.906 H 21.184 L 14.976,14.846 8.725,31.906 H 1.389 Z M 53.568,22.009 H 46.536 L 41.326,10.983 36.247,22.009 H 29.215 L 37.94,5.556 29.128,-9.984 h 7.336 z M 77.27,32.992 h -6.382 v -12.98 c -1.085,1.215 -2.994,2.431 -6.121,2.431 -5.817,0 -9.81,-4.862 -9.81,-11.46 0,-6.599 3.993,-11.417 9.81,-11.417 3.17,0 5.296,1.302 6.425,2.865 L 71.539,0 H 77.27 Z M 66.373,16.843 c 2.214,0 3.56,-1.172 4.515,-2.778 V 7.901 C 69.933,6.338 68.587,5.166 66.373,5.166 c -2.908,0 -4.905,2.214 -4.905,5.817 0,3.603 1.997,5.86 4.905,5.86 m 34.294,5.166 H 82.391 v -5.426 h 8.596 L 81.827,0.174 V 0 h 18.753 v 5.426 h -9.072 l 9.159,16.409 z m 7.771,10.722 c -2.215,0 -3.778,-1.606 -3.778,-3.777 0,-2.17 1.563,-3.776 3.778,-3.776 2.169,0 3.732,1.606 3.732,3.776 0,2.171 -1.563,3.777 -3.732,3.777 m 3.168,-10.722 H 105.18 V 0 h 6.426 z m 14.498,0.434 c -5.817,0 -9.68,-4.862 -9.68,-11.46 0,-6.599 3.863,-11.417 9.68,-11.417 3.083,0 5.167,1.302 6.295,2.865 L 132.703,0 h 5.773 v 22.009 h -5.773 l -0.304,-2.475 c -1.128,1.607 -3.212,2.909 -6.295,2.909 m 1.563,-5.6 c 2.171,0 3.429,-1.172 4.384,-2.735 V 7.901 c -0.955,-1.563 -2.213,-2.735 -4.384,-2.735 -2.822,0 -4.731,2.214 -4.731,5.817 0,3.603 1.909,5.86 4.731,5.86 m 28.781,-0.955 -1.563,3.95 -2.952,-1.259 v 14.413 h -6.425 V 15.845 l -4.427,-1.867 1.606,-3.95 2.821,1.215 V 0 h 6.425 v 13.978 z" />
          </g>
          <g
             transform="translate(260.5625,282.0869)"
             id="g891"
             style="stroke:none;stroke-opacity:1;fill:#000000;fill-opacity:1">
            <path
               inkscape:connector-curvature="0"
               id="path893"
               style="fill:#000000;fill-opacity:1;fill-rule:nonzero;stroke:none;stroke-opacity:1"
               d="M 0,0 29.03,-17.76 64.295,0 H 52.01 L 66.131,71 H 36.495 l 1.531,7.698 H 1.312 L -13.211,5.682 H 16.498 L 15.368,0 Z M 28.983,-18.901 28.746,-18.757 -3.551,1 h 18.098 l 0.732,3.682 H -14.43 L 0.491,79.698 H 39.245 L 37.714,72 H 67.35 L 53.229,1 h 15.275 z" />
          </g>
          <g
             transform="translate(278.6943,325.7202)"
             id="g895"
             style="stroke:none;stroke-opacity:1;fill:#000000;fill-opacity:1">
            <path
               inkscape:connector-curvature="0"
               id="path897"
               style="fill:#000000;fill-opacity:1;fill-rule:nonzero;stroke:none;stroke-opacity:1"
               d="M 0,0 H 18.583 C 19.035,3.031 18.586,5.445 17.277,7 16.076,8.428 14.15,9.151 11.553,9.151 5.219,9.151 1.254,4.65 0,0 M 19.429,-1 H -1.258 l 0.133,0.606 c 1.147,5.249 5.513,10.545 12.678,10.545 2.905,0 5.089,-0.843 6.489,-2.506 1.564,-1.858 2.069,-4.704 1.459,-8.23 z M 12.46,20.306 c -17.861,0 -28.917,-15.86 -28.917,-30.554 -0.05,-6.27 1.924,-11.598 5.707,-15.411 3.893,-3.923 9.515,-5.997 16.259,-5.997 9.262,0 16.175,2.545 22.336,8.24 l -8.524,7.856 c -3.456,-3.297 -7.595,-5.037 -11.999,-5.037 -3.2,0 -5.834,0.992 -7.617,2.867 -1.837,1.93 -2.72,4.701 -2.553,8.01 l 0.024,0.475 h 34.308 l 0.732,4.209 c 1.388,7.555 0.045,14.24 -3.779,18.83 -3.549,4.26 -9.074,6.512 -15.977,6.512 M 5.509,-32.656 c -7.017,0 -12.884,2.176 -16.968,6.293 -3.976,4.007 -6.05,9.581 -5.998,16.119 0,15.171 11.438,31.55 29.917,31.55 7.209,0 13,-2.376 16.745,-6.871 4.018,-4.823 5.437,-11.8 3.996,-19.647 l -0.876,-5.033 H -1.866 c -0.05,-2.818 0.739,-5.16 2.295,-6.796 1.59,-1.672 3.973,-2.556 6.893,-2.556 5.407,0 9.312,2.763 11.636,5.08 l 0.339,0.338 10.014,-9.228 -0.387,-0.368 c -6.46,-6.142 -13.681,-8.881 -23.415,-8.881" />
          </g>
          <path
             inkscape:connector-curvature="0"
             id="path899"
             style="fill:#000000;fill-opacity:1;fill-rule:nonzero;stroke:none;stroke-opacity:1"
             d="m 357.985,277.955 h 6.642 v 31.906 h -6.642 z m 12.068,25.829 h 8.552 v 6.077 h -8.552 z m 0,-12.502 h 6.685 v 5.687 h -6.685 z m 0,-13.327 h 8.899 v 6.077 h -8.899 z m 20.428,32.992 h -6.425 v -32.992 h 6.425 z m 15.915,-10.549 c -6.598,0 -11.113,-4.905 -11.113,-11.504 0,-6.598 4.601,-11.373 11.504,-11.373 4.123,0 7.249,1.476 9.419,4.254 l -4.297,3.256 c -0.955,-1.259 -2.692,-2.214 -4.905,-2.214 -3.126,0 -5.079,1.606 -5.253,4.384 h 14.846 v 2.041 c 0,6.034 -3.299,11.156 -10.201,11.156 m -0.174,-4.818 c 2.561,0 3.994,-1.867 4.081,-4.341 h -8.509 c 0.131,2.517 1.824,4.341 4.428,4.341 m 21.774,15.367 h -6.424 v -32.992 h 5.079 l 5.383,7.423 4.297,-7.423 h 7.293 l -7.336,12.936 6.685,9.073 h -7.293 l -7.684,-11.677 z m 27.375,-3.69 h -6.425 v -7.293 h -3.95 v -5.426 h 3.95 v -8.378 c 0,-5.557 3.386,-8.639 8.812,-8.639 2.258,0 3.907,0.608 5.036,1.346 l -1.607,5.079 c -0.65,-0.304 -1.519,-0.695 -2.864,-0.695 -1.78,0 -2.952,1.129 -2.952,2.995 v 8.292 h 6.294 v 5.426 h -6.294 z m 23.468,-6.859 c -3.039,0 -5.253,-1.519 -6.338,-3.343 l -0.348,2.909 h -5.73 v -22.009 h 6.425 v 13.153 c 1.259,1.65 2.908,2.909 5.47,2.909 h 0.521 z m 26.029,-0.434 h -7.033 l -5.209,-11.027 -5.079,11.027 h -7.032 l 8.725,-16.452 -8.812,-15.541 h 7.336 z m 12.701,0.434 c -6.641,0 -11.373,-4.862 -11.373,-11.461 0,-6.597 4.732,-11.416 11.373,-11.416 4.124,0 7.25,1.997 9.116,5.209 l -4.341,3.169 c -0.998,-1.649 -2.474,-2.821 -4.644,-2.821 -3.213,0 -5.036,2.604 -5.036,5.859 0,3.3 1.78,5.905 4.992,5.905 2.171,0 3.603,-1.172 4.515,-2.822 l 4.471,3.299 c -1.997,3.169 -4.949,5.079 -9.073,5.079 m 30.285,-0.434 h -18.277 v -5.426 h 8.595 l -9.159,-16.409 v -0.174 h 18.753 v 5.426 h -9.073 l 9.161,16.409 z m 16.737,0.434 c -2.995,0 -5.122,-1.259 -6.251,-2.865 l -0.303,2.431 h -5.731 v -22.009 h 6.425 v 13.848 c 0.825,1.302 2.127,2.561 4.124,2.561 2.214,0 3.56,-1.649 3.56,-4.08 v -12.329 h 6.424 v 12.676 c 0,5.947 -2.865,9.767 -8.248,9.767 m 34.755,-0.434 h -7.034 l -5.208,-11.027 -5.079,11.027 h -7.032 l 8.725,-16.452 -8.812,-15.541 h 7.336 z" />
          <g
             transform="translate(546.9961,240.9707)"
             id="g901"
             style="fill:#000000;fill-opacity:1">
            <path
               inkscape:connector-curvature="0"
               id="path903"
               style="fill:#000000;fill-opacity:1;fill-rule:nonzero;stroke:none"
               d="m 0,0 -0.12,-1.316 h -4.677 v 0.03 l 0.304,0.121 5.399,8.094 v 0.756 h -7.048 v -2.45 c 0.257,-0.045 0.725,-0.045 0.983,0 l 0.121,1.317 H -0.56 V 6.521 L -0.861,6.4 -6.293,-1.693 V -2.449 H 0.982 V 0 C 0.726,0.045 0.258,0.045 0,0" />
          </g>
          <g
             transform="translate(532.7295,246.1611)"
             id="g905"
             style="fill:#000000;fill-opacity:1">
            <path
               inkscape:connector-curvature="0"
               id="path907"
               style="fill:#000000;fill-opacity:1;fill-rule:nonzero;stroke:none"
               d="m 0,0 c 0,1.059 0.561,1.513 1.756,1.513 0.499,0 0.97,-0.106 1.392,-0.257 L 3.3,-0.318 c 0.256,-0.045 0.724,-0.045 0.981,0 V 1.98 c -0.71,0.364 -1.435,0.666 -2.525,0.666 -1.982,0 -3.04,-1.073 -3.04,-2.646 0,-3.405 4.78,-2.542 4.78,-4.979 0,-1.225 -0.938,-1.679 -2.073,-1.679 -0.529,0 -1.06,0.106 -1.544,0.288 l -0.15,1.543 c -0.258,0.045 -0.726,0.045 -0.983,0 v -2.299 c 0.71,-0.363 1.587,-0.665 2.677,-0.665 2.18,0 3.373,1.042 3.373,2.812 C 4.796,-1.604 0,-2.315 0,0" />
          </g>
          <g
             transform="translate(522.3525,244.1016)"
             id="g909"
             style="fill:#000000;fill-opacity:1">
            <path
               inkscape:connector-curvature="0"
               id="path911"
               style="fill:#000000;fill-opacity:1;fill-rule:nonzero;stroke:none"
               d="m 0,0 v 3.512 c 0.514,0.046 1.044,0.06 1.619,0.06 1.105,0 1.938,-0.53 1.938,-1.891 C 3.557,0.47 2.724,-0.061 1.619,-0.061 1.044,-0.061 0.514,-0.046 0,0 m 5.204,-4.599 -2.495,3.527 c 1.301,0.333 2.207,1.254 2.207,2.753 0,2.043 -1.45,3.024 -3.297,3.024 -1.074,0 -1.982,-0.15 -2.903,-0.15 L -2.419,4.554 c -0.045,-0.287 -0.045,-0.589 0,-0.83 L -1.284,3.572 V -4.599 L -2.419,-4.75 c -0.045,-0.241 -0.045,-0.544 0,-0.83 h 3.554 c 0.045,0.286 0.045,0.589 0,0.83 L 0,-4.599 v 3.466 c 0.408,-0.03 0.847,-0.045 1.301,-0.059 L 4.342,-5.58 h 1.996 c 0.046,0.286 0.046,0.589 0,0.83 z" />
          </g>
          <g
             transform="translate(510.6895,242.9814)"
             id="g913"
             style="fill:#000000;fill-opacity:1">
            <path
               inkscape:connector-curvature="0"
               id="path915"
               style="fill:#000000;fill-opacity:1;fill-rule:nonzero;stroke:none"
               d="m 0,0 1.527,3.931 0.061,0.604 h 0.03 L 1.679,3.931 3.178,0 Z m 5.939,-3.493 -3.63,9.166 h -2.58 c -0.044,-0.288 -0.044,-0.593 0,-0.835 L 0.636,4.731 -2.707,-3.479 -3.811,-3.63 c -0.044,-0.241 -0.044,-0.544 0,-0.83 h 3.553 c 0.046,0.286 0.046,0.589 0,0.83 l -1.103,0.151 0.923,2.347 H 3.603 L 4.509,-3.493 3.436,-3.63 c -0.045,-0.241 -0.045,-0.544 0,-0.83 h 3.552 c 0.046,0.286 0.046,0.589 0,0.83 z" />
          </g>
          <g
             transform="translate(502.4619,248.6553)"
             id="g917"
             style="fill:#000000;fill-opacity:1">
            <path
               inkscape:connector-curvature="0"
               id="path919"
               style="fill:#000000;fill-opacity:1;fill-rule:nonzero;stroke:none"
               d="m 0,0 c -0.046,-0.287 -0.046,-0.589 0,-0.83 l 1.073,-0.137 -2.087,-7.429 -0.06,-0.605 h -0.03 l -0.061,0.605 -2.06,8.245 h -1.619 l -2.101,-8.245 -0.062,-0.605 h -0.029 l -0.062,0.605 -2.087,7.415 1.105,0.151 c 0.045,0.241 0.045,0.543 0,0.83 h -3.554 c -0.046,-0.287 -0.046,-0.589 0,-0.83 l 1.088,-0.151 2.752,-9.153 h 1.528 l 2.143,8.244 0.06,0.606 h 0.031 l 0.059,-0.606 2.133,-8.244 h 1.529 l 2.745,9.153 1.088,0.151 c 0.045,0.241 0.045,0.543 0,0.83 z" />
          </g>
          <g
             transform="translate(596.8857,239.4883)"
             id="g921"
             style="fill:#000000;fill-opacity:1">
            <path
               inkscape:connector-curvature="0"
               id="path923"
               style="fill:#000000;fill-opacity:1;fill-rule:nonzero;stroke:none"
               d="m 0,0 -3.524,4.297 -0.303,0.076 v 0.029 l 0.303,0.077 3.282,3.707 1.134,0.151 c 0.045,0.241 0.045,0.543 0,0.83 h -3.478 c -0.045,-0.287 -0.045,-0.589 0,-0.83 l 0.923,-0.121 -3.482,-3.828 4.283,-5.355 h 1.996 c 0.045,0.286 0.045,0.589 0,0.83 z" />
          </g>
          <g
             transform="translate(476.9697,242.9814)"
             id="g925"
             style="fill:#000000;fill-opacity:1">
            <path
               inkscape:connector-curvature="0"
               id="path927"
               style="fill:#000000;fill-opacity:1;fill-rule:nonzero;stroke:none"
               d="m 0,0 1.527,3.931 0.062,0.604 h 0.03 L 1.679,3.931 3.179,0 Z M 5.939,-3.493 2.308,5.673 h -2.579 c -0.044,-0.288 -0.044,-0.593 0,-0.835 L 0.637,4.731 -2.706,-3.479 -3.811,-3.63 c -0.044,-0.241 -0.044,-0.544 0,-0.83 h 3.554 c 0.046,0.286 0.046,0.589 0,0.83 l -1.104,0.151 0.923,2.347 H 3.603 L 4.51,-3.493 3.436,-3.63 c -0.045,-0.241 -0.045,-0.544 0,-0.83 h 3.553 c 0.046,0.286 0.046,0.589 0,0.83 z" />
          </g>
          <g
             transform="translate(603.5566,242.9814)"
             id="g929"
             style="fill:#000000;fill-opacity:1">
            <path
               inkscape:connector-curvature="0"
               id="path931"
               style="fill:#000000;fill-opacity:1;fill-rule:nonzero;stroke:none"
               d="m 0,0 1.527,3.931 0.061,0.604 h 0.03 L 1.679,3.931 3.178,0 Z m 5.938,-3.493 -3.63,9.166 h -2.579 c -0.045,-0.288 -0.045,-0.593 0,-0.835 L 0.636,4.731 -2.707,-3.479 -3.812,-3.63 c -0.044,-0.241 -0.044,-0.544 0,-0.83 h 3.554 c 0.046,0.286 0.046,0.589 0,0.83 l -1.103,0.151 0.922,2.347 H 3.602 L 4.509,-3.493 3.435,-3.63 c -0.045,-0.241 -0.045,-0.544 0,-0.83 h 3.554 c 0.045,0.286 0.045,0.589 0,0.83 z" />
          </g>
          <g
             transform="translate(591.2871,239.5029)"
             id="g933"
             style="fill:#000000;fill-opacity:1">
            <path
               inkscape:connector-curvature="0"
               id="path935"
               style="fill:#000000;fill-opacity:1;fill-rule:nonzero;stroke:none"
               d="m 0,0 v 8.171 l 1.136,0.151 c 0.046,0.241 0.046,0.543 0,0.83 h -3.554 c -0.046,-0.287 -0.046,-0.589 0,-0.83 L -1.283,8.171 V 0 l -1.135,-0.151 c -0.046,-0.242 -0.046,-0.544 0,-0.83 h 3.554 c 0.046,0.286 0.046,0.588 0,0.83 z" />
          </g>
          <g
             transform="translate(554.166,242.9814)"
             id="g937"
             style="fill:#000000;fill-opacity:1">
            <path
               inkscape:connector-curvature="0"
               id="path939"
               style="fill:#000000;fill-opacity:1;fill-rule:nonzero;stroke:none"
               d="M 0,0 1.526,3.931 1.588,4.535 H 1.617 L 1.679,3.931 3.178,0 Z m 5.938,-3.493 -3.63,9.166 h -2.579 c -0.045,-0.288 -0.045,-0.593 0,-0.835 L 0.636,4.731 -2.707,-3.479 -3.812,-3.63 c -0.044,-0.241 -0.044,-0.544 0,-0.83 h 3.553 c 0.046,0.286 0.046,0.589 0,0.83 l -1.102,0.151 0.922,2.347 H 3.602 L 4.509,-3.493 3.435,-3.63 c -0.045,-0.241 -0.045,-0.544 0,-0.83 h 3.552 c 0.046,0.286 0.046,0.589 0,0.83 z" />
          </g>
          <g
             transform="translate(573.3789,248.6553)"
             id="g941"
             style="fill:#000000;fill-opacity:1">
            <path
               inkscape:connector-curvature="0"
               id="path943"
               style="fill:#000000;fill-opacity:1;fill-rule:nonzero;stroke:none"
               d="m 0,0 c -0.046,-0.287 -0.046,-0.589 0,-0.83 l 1.073,-0.137 -2.087,-7.429 -0.06,-0.605 h -0.03 l -0.06,0.605 -2.061,8.245 h -1.618 l -2.102,-8.245 -0.062,-0.605 h -0.029 l -0.061,0.605 -2.087,7.415 1.104,0.151 c 0.046,0.241 0.046,0.543 0,0.83 h -3.554 c -0.045,-0.287 -0.045,-0.589 0,-0.83 l 1.089,-0.151 2.752,-9.153 h 1.528 l 2.142,8.244 0.061,0.606 h 0.03 l 0.059,-0.606 2.134,-8.244 h 1.528 l 2.746,9.153 1.087,0.151 c 0.046,0.241 0.046,0.543 0,0.83 z" />
          </g>
          <g
             transform="translate(580.9404,246.1611)"
             id="g945"
             style="fill:#000000;fill-opacity:1">
            <path
               inkscape:connector-curvature="0"
               id="path947"
               style="fill:#000000;fill-opacity:1;fill-rule:nonzero;stroke:none"
               d="m 0,0 c 0,1.059 0.561,1.513 1.756,1.513 0.499,0 0.97,-0.106 1.392,-0.257 L 3.3,-0.318 c 0.256,-0.045 0.725,-0.045 0.981,0 V 1.98 C 3.572,2.344 2.846,2.646 1.756,2.646 c -1.982,0 -3.04,-1.073 -3.04,-2.646 0,-3.405 4.78,-2.542 4.78,-4.979 0,-1.225 -0.937,-1.679 -2.073,-1.679 -0.529,0 -1.06,0.106 -1.544,0.288 l -0.15,1.543 c -0.258,0.045 -0.726,0.045 -0.983,0 v -2.299 c 0.71,-0.363 1.587,-0.665 2.677,-0.665 2.18,0 3.373,1.042 3.373,2.812 C 4.796,-1.604 0,-2.315 0,0" />
          </g>
          <g
             transform="translate(417.8535,243.5879)"
             id="g949"
             style="fill:#000000;fill-opacity:1">
            <path
               inkscape:connector-curvature="0"
               id="path951"
               style="fill:#000000;fill-opacity:1;fill-rule:nonzero;stroke:none"
               d="m 0,0 c 0,-3.919 2.525,-5.218 4.916,-5.218 1.241,0 2.27,0.302 2.98,0.665 v 1.3 C 7.216,-3.692 6.066,-4.085 4.916,-4.085 3.055,-4.085 1.36,-2.874 1.36,0 c 0,2.875 1.544,4.086 3.556,4.086 0.636,0 1.287,-0.121 1.847,-0.303 L 6.914,2.255 C 7.17,2.21 7.638,2.21 7.896,2.255 V 4.554 C 7.186,4.917 6.157,5.219 4.916,5.219 2.525,5.219 0,3.919 0,0" />
          </g>
          <g
             transform="translate(394.1924,247.8252)"
             id="g953"
             style="fill:#000000;fill-opacity:1">
            <path
               inkscape:connector-curvature="0"
               id="path955"
               style="fill:#000000;fill-opacity:1;fill-rule:nonzero;stroke:none"
               d="M 0,0 C 0.046,0.241 0.046,0.543 0,0.83 H -3.553 C -3.598,0.543 -3.598,0.241 -3.553,0 l 1.135,-0.151 v -8.171 l -1.135,-0.152 c -0.045,-0.241 -0.045,-0.544 0,-0.83 H 0 c 0.046,0.286 0.046,0.589 0,0.83 l -1.134,0.152 v 8.171 z" />
          </g>
          <g
             transform="translate(396.7964,246.2061)"
             id="g957"
             style="fill:#000000;fill-opacity:1">
            <path
               inkscape:connector-curvature="0"
               id="path959"
               style="fill:#000000;fill-opacity:1;fill-rule:nonzero;stroke:none"
               d="m 0,0 c 0.257,-0.045 0.725,-0.045 0.982,0 l 0.12,1.316 H 3.404 V -6.703 L 2.283,-6.854 c -0.045,-0.242 -0.045,-0.544 0,-0.831 h 3.555 c 0.046,0.287 0.046,0.589 0,0.831 L 4.703,-6.703 H 4.688 V 1.316 H 6.989 L 7.11,0 C 7.367,-0.045 7.835,-0.045 8.091,0 V 2.449 H 0 Z" />
          </g>
          <g
             transform="translate(386.9785,240.9707)"
             id="g961"
             style="fill:#000000;fill-opacity:1">
            <path
               inkscape:connector-curvature="0"
               id="path963"
               style="fill:#000000;fill-opacity:1;fill-rule:nonzero;stroke:none"
               d="m 0,0 -0.12,-1.316 h -3.588 v 8.019 l 1.136,0.151 c 0.045,0.242 0.045,0.543 0,0.831 h -3.554 c -0.045,-0.288 -0.045,-0.589 0,-0.831 l 1.134,-0.151 v -8.171 l -1.134,-0.151 c -0.045,-0.24 -0.045,-0.543 0,-0.83 H 0.982 V 0 C 0.725,0.045 0.257,0.045 0,0" />
          </g>
          <g
             transform="translate(470.2998,239.4883)"
             id="g965"
             style="fill:#000000;fill-opacity:1">
            <path
               inkscape:connector-curvature="0"
               id="path967"
               style="fill:#000000;fill-opacity:1;fill-rule:nonzero;stroke:none"
               d="m 0,0 -3.524,4.297 -0.303,0.076 v 0.029 l 0.303,0.077 3.282,3.707 1.134,0.151 c 0.045,0.241 0.045,0.543 0,0.83 h -3.478 c -0.045,-0.287 -0.045,-0.589 0,-0.83 l 0.923,-0.121 -3.482,-3.828 4.283,-5.355 h 1.996 c 0.045,0.286 0.045,0.589 0,0.83 z" />
          </g>
          <g
             transform="translate(372.8037,239.5029)"
             id="g969"
             style="fill:#000000;fill-opacity:1">
            <path
               inkscape:connector-curvature="0"
               id="path971"
               style="fill:#000000;fill-opacity:1;fill-rule:nonzero;stroke:none"
               d="M 0,0 C -1.861,0 -3.556,1.211 -3.556,4.085 -3.556,6.96 -1.861,8.171 0,8.171 1.861,8.171 3.556,6.96 3.556,4.085 3.556,1.211 1.861,0 0,0 m 0,9.304 c -2.391,0 -4.915,-1.3 -4.915,-5.219 0,-3.919 2.524,-5.218 4.915,-5.218 2.391,0 4.916,1.299 4.916,5.218 0,3.919 -2.525,5.219 -4.916,5.219" />
          </g>
          <g
             transform="translate(361.2617,243.9658)"
             id="g973"
             style="fill:#000000;fill-opacity:1">
            <path
               inkscape:connector-curvature="0"
               id="path975"
               style="fill:#000000;fill-opacity:1;fill-rule:nonzero;stroke:none"
               d="M 0,0 C -0.575,0 -1.105,0.015 -1.619,0.061 V 3.647 C -1.105,3.693 -0.575,3.708 0,3.708 1.256,3.708 2.089,3.178 2.089,1.816 2.089,0.529 1.256,0 0,0 M 0,4.841 C -1.075,4.841 -1.982,4.69 -2.903,4.69 L -4.038,4.689 c -0.045,-0.287 -0.045,-0.588 0,-0.83 l 1.135,-0.151 v -8.171 l -1.135,-0.151 c -0.045,-0.241 -0.045,-0.544 0,-0.83 h 4.008 c 0.045,0.286 0.045,0.589 0,0.83 l -1.589,0.151 v 3.39 c 0.514,-0.045 1.044,-0.06 1.619,-0.06 1.998,0 3.448,0.982 3.448,2.949 0,2.043 -1.45,3.025 -3.448,3.025" />
          </g>
          <g
             transform="translate(459.4229,247.8252)"
             id="g977"
             style="fill:#000000;fill-opacity:1">
            <path
               inkscape:connector-curvature="0"
               id="path979"
               style="fill:#000000;fill-opacity:1;fill-rule:nonzero;stroke:none"
               d="M 0,0 C 0.045,0.241 0.045,0.543 0,0.83 H -3.554 C -3.6,0.543 -3.6,0.241 -3.554,0 l 1.135,-0.151 v -8.171 l -1.135,-0.152 c -0.046,-0.241 -0.046,-0.544 0,-0.83 H 0 c 0.045,0.286 0.045,0.589 0,0.83 l -1.136,0.152 v 8.171 z" />
          </g>
          <g
             transform="translate(464.7012,239.5029)"
             id="g981"
             style="fill:#000000;fill-opacity:1">
            <path
               inkscape:connector-curvature="0"
               id="path983"
               style="fill:#000000;fill-opacity:1;fill-rule:nonzero;stroke:none"
               d="m 0,0 v 8.171 l 1.136,0.151 c 0.046,0.241 0.046,0.543 0,0.83 h -3.555 c -0.045,-0.287 -0.045,-0.589 0,-0.83 L -1.283,8.171 V 0 l -1.136,-0.151 c -0.045,-0.242 -0.045,-0.544 0,-0.83 h 3.555 c 0.046,0.286 0.046,0.588 0,0.83 z" />
          </g>
          <g
             transform="translate(439.4697,247.8252)"
             id="g985"
             style="fill:#000000;fill-opacity:1">
            <path
               inkscape:connector-curvature="0"
               id="path987"
               style="fill:#000000;fill-opacity:1;fill-rule:nonzero;stroke:none"
               d="M 0,0 C 0.045,0.241 0.045,0.543 0,0.83 H -3.555 C -3.6,0.543 -3.6,0.241 -3.555,0 l 1.136,-0.151 v -3.407 h -5.75 v 3.407 L -7.034,0 c 0.045,0.241 0.045,0.543 0,0.83 h -3.554 c -0.045,-0.287 -0.045,-0.589 0,-0.83 l 1.135,-0.151 v -8.171 l -1.135,-0.152 c -0.045,-0.241 -0.045,-0.544 0,-0.83 h 3.554 c 0.045,0.286 0.045,0.589 0,0.83 l -1.135,0.152 v 3.633 h 5.75 v -3.633 l -1.136,-0.152 c -0.045,-0.241 -0.045,-0.544 0,-0.83 H 0 c 0.045,0.286 0.045,0.589 0,0.83 l -1.135,0.152 v 8.171 z" />
          </g>
          <g
             transform="translate(413.6934,240.9707)"
             id="g989"
             style="stroke:none;stroke-opacity:1;fill:#000000;fill-opacity:1">
            <path
               inkscape:connector-curvature="0"
               id="path991"
               style="fill:#000000;fill-opacity:1;fill-rule:nonzero;stroke:none;stroke-opacity:1"
               d="m 0,0 -0.121,-1.316 h -3.738 v 3.571 l 3.557,-0.09 v 1.132 l -3.557,-0.09 v 3.345 h 3.436 l 0.121,-1.317 c 0.257,-0.046 0.725,-0.046 0.981,0 v 2.45 h -6.956 c -0.046,-0.288 -0.046,-0.59 0,-0.831 l 1.134,-0.151 v -8.171 l -1.134,-0.151 c -0.046,-0.24 -0.046,-0.543 0,-0.83 H 0.982 V 0 C 0.725,0.046 0.257,0.046 0,0" />
          </g>
          <g
             transform="translate(449.6064,248.6553)"
             id="g993"
             style="fill:#000000;fill-opacity:1">
            <path
               inkscape:connector-curvature="0"
               id="path995"
               style="fill:#000000;fill-opacity:1;fill-rule:nonzero;stroke:none"
               d="M 0,0 C -0.046,-0.287 -0.046,-0.589 0,-0.83 L 1.135,-0.981 V -9.076 H 1.104 L 0.923,-8.32 -4.056,0 h -2.978 c -0.046,-0.287 -0.046,-0.589 0,-0.83 l 1.135,-0.151 v -8.171 l -1.135,-0.152 c -0.046,-0.241 -0.046,-0.544 0,-0.83 h 3.554 c 0.045,0.286 0.045,0.589 0,0.83 l -1.136,0.152 v 7.959 h 0.03 l 0.167,-0.606 4.994,-8.335 h 1.844 v 9.153 L 3.553,-0.83 C 3.6,-0.589 3.6,-0.287 3.553,0 Z" />
          </g>
        </g>
      </g>
    </g>
  </g>
</svg>
